<svg xmlns="http://www.w3.org/2000/svg" xmlns:xlink="http://www.w3.org/1999/xlink" version="1.0" id="Layer_1" x="0px" y="0px" viewBox="0 0 300 383.3" enable-background="new 0 0 1080 383.3" xml:space="preserve"><script xmlns="" id="argent-x-extension" data-extension-id="dlcobpjiigpikoobohmabehhmhfoodbb"/>
<g>
	
	<g>
		<path fill="#2563EB" d="M98.8,243.5v-77.7h-6.3c-8.6,0-15.6,7-15.6,15.6v87.5c0,8.6,7,15.6,15.6,15.6H180c8.6,0,15.6-7,15.6-15.6    v-8.3h-79.7C104.8,260.7,98.8,252.2,98.8,243.5z"/>
		<path fill="#2563EB" d="M193.1,209.3L164,227.7c-3.4,2.2-7.4,3.3-11.4,3.3c0,0,0,0,0,0c-11.8,0-21.5-9.6-21.5-21.5v-40.3v-28h-4.6    c-8.3,0-15.1,6.8-15.1,15.1v12.9v62.6c0.2,10.2,7.8,16.5,16.8,16.2h64.9h0c13.9,0,25.1-11.2,25.1-25.1v-29.5L193.1,209.3z"/>
		<path fill="#2563EB" d="M242.9,150.2c-1-1.6-2.3-2.9-3.9-3.8l0,0l-8-4.6l-23.7-13.7l-48.5-28c-1.5-0.9-3-1.3-4.7-1.3    c-5.4,0-9.9,4.4-9.9,9.9v19.5v5.9v5.9v28v40.3c0,5.3,4.3,9.7,9.7,9.7c0,0,0,0,0,0c1.8,0,3.6-0.5,5.1-1.5l35.4-22.4l25.1-15.9    l5.9-3.7l5.9-3.7l8.1-5.1c2.6-1.6,4.3-4.1,5-7C244.9,155.7,244.4,152.7,242.9,150.2z"/>
	</g>
</g>
</svg>